<svg preserveAspectRatio="none" overflow="visible" style="display: block;" width="13.3333" height="12" viewBox="0 0 13.3333 12" fill="none" xmlns="http://www.w3.org/2000/svg">
<g id="Wallet">
<path id="Wallet_2" fill-rule="evenodd" clip-rule="evenodd" d="M10.5126 3.58787H13.3333C13.3333 1.32306 11.9763 0 9.67704 0H3.6563C1.35704 0 0 1.32306 0 3.55898V8.44102C0 10.6769 1.35704 12 3.6563 12H9.67704C11.9763 12 13.3333 10.6769 13.3333 8.44102V8.23303H10.5126C9.20347 8.23303 8.14222 7.19835 8.14222 5.922C8.14222 4.64566 9.20347 3.61098 10.5126 3.61098V3.58787ZM10.5113 4.58163H12.8343C13.1092 4.58163 13.3321 4.79892 13.3321 5.06695V6.754C13.3289 7.02073 13.1079 7.2362 12.8343 7.23932H10.5647C9.90194 7.24801 9.32241 6.80561 9.17209 6.17624C9.09681 5.78555 9.20249 5.3824 9.4608 5.07484C9.71911 4.76727 10.1036 4.58674 10.5113 4.58163ZM10.6151 6.35542H10.8343C11.1158 6.35542 11.3439 6.13297 11.3439 5.85855C11.3439 5.58414 11.1158 5.36168 10.8343 5.36168H10.6151C10.4804 5.36014 10.3508 5.4112 10.255 5.50346C10.1593 5.59573 10.1054 5.72152 10.1054 5.85278C10.1054 6.12814 10.3326 6.35226 10.6151 6.35542ZM3.15951 3.58824H6.92247C7.20394 3.58824 7.4321 3.36578 7.4321 3.09137C7.4321 2.81696 7.20394 2.5945 6.92247 2.5945H3.15951C2.88035 2.59448 2.65313 2.81344 2.64988 3.08559C2.64986 3.36096 2.87709 3.58508 3.15951 3.58824Z" fill="#808191"/>
</g>
</svg>
