<svg preserveAspectRatio="none" overflow="visible" style="display: block;" width="12.6667" height="13.3333" viewBox="0 0 12.6667 13.3333" fill="none" xmlns="http://www.w3.org/2000/svg">
<g id="Home">
<path id="Home_2" d="M4.42319 12.5156V10.4771C4.42319 9.95671 4.84812 9.53487 5.37229 9.53487H7.28841C7.54013 9.53487 7.78154 9.63414 7.95953 9.81084C8.13752 9.98754 8.23751 10.2272 8.23751 10.4771V12.5156C8.23592 12.7319 8.32138 12.9399 8.47492 13.0935C8.62845 13.247 8.83737 13.3333 9.0553 13.3333H10.3626C10.9731 13.3349 11.5592 13.0952 11.9914 12.6672C12.4237 12.2392 12.6667 11.658 12.6667 11.0519V5.24457C12.6667 4.75497 12.448 4.29056 12.0697 3.97645L7.62268 0.450579C6.84911 -0.167626 5.74074 -0.147665 4.99026 0.497986L0.644675 3.97645C0.248494 4.2813 0.0117015 4.74709 0 5.24457V11.046C0 12.3092 1.03159 13.3333 2.30412 13.3333H3.58153C4.03415 13.3333 4.402 12.9708 4.40528 12.5215L4.42319 12.5156Z" fill="#808191"/>
</g>
</svg>
